<svg width="39" height="39" viewBox="0 0 39 39" fill="none" xmlns="http://www.w3.org/2000/svg">
<path fill-rule="evenodd" clip-rule="evenodd" d="M19.5 39C30.2696 39 39 30.2696 39 19.5C39 8.73045 30.2696 0 19.5 0C8.73045 0 0 8.73045 0 19.5C0 30.2696 8.73045 39 19.5 39ZM19 21C13.6277 21 8.96216 22.8369 6.61475 25.5332C8.96216 29.9736 13.6277 33 19 33C24.3723 33 29.0378 29.9736 31.3853 25.5332C29.0378 22.8369 24.3723 21 19 21ZM19 18C22.3137 18 25 15.3135 25 12C25 8.68652 22.3137 6 19 6C15.6863 6 13 8.68652 13 12C13 15.3135 15.6863 18 19 18Z" fill="#CECECE"/>
</svg>
